{"title":"The.Runaways.Screener.H264.FEEL-FREE","uid":5617520,"size":735381811,"categoryP":"video","categoryS":"movies","magnet":"?xt=urn:btih:bf84c235442189948fa4335101b5baf8a68b0ebe&amp;dn=The.Runaways.Screener.H264.FEEL-FREE&amp;tr=udp%3A%2F%2Ftracker.openbittorrent.com%3A80&amp;tr=udp%3A%2F%2Fopen.demonii.com%3A1337&amp;tr=udp%3A%2F%2Ftracker.coppersurfer.tk%3A6969&amp;tr=udp%3A%2F%2Fexodus.desync.com%3A6969","seeders":0,"leechers":0,"uploader":"neon","files":-1,"time":1276122074,"description":"The.Runaways.Screener.H264.FEEL-FREE\n\nscreens &lt;a href=&quot;\nhttp://img19.imageshack.us/slideshow/webplayer.php?id=run1c.png&quot; rel=&quot;nofollow&quot; target=&quot;_NEW&quot;&gt;\nhttp://img19.imageshack.us/slideshow/webplayer.php?id=run1c.png&lt;/a&gt;\n\nGenre:Drama | Music\nLanguage:English\nIMDb:http://www.imdb.com/title/tt1017451/\nSource:SCR-NoGRP.Thanks\nEncoder: Tony2 &lt;a href=&quot;\nhttp://www.imdb.com/title/tt1017451/&quot; rel=&quot;nofollow&quot; target=&quot;_NEW&quot;&gt;\nhttp://www.imdb.com/title/tt1017451/&lt;/a&gt;\n\n\nGeneral\nComplete name : The.Runaways.Screener.H264.FEEL-FREE\nFormat : MPEG-4\nFormat profile : Base Media\nCodec ID : isom\nFile size : 700 MiB\nDuration : 1h 46mn\nOverall bit rate : 918 Kbps\n\nVideo\nID : 1\nFormat : AVC\nFormat/Info : Advanced Video Codec\nFormat profile : &lt;a class=&quot;__cf_email__&quot; href=&quot;/cdn-cgi/l/email-protection&quot; data-cfemail=&quot;5914383037191568776a&quot;&gt;[email&amp;#160;protected]&lt;/a&gt;&lt;script cf-hash='f9e31' type=&quot;text/javascript&quot;&gt;\n/* &lt;![CDATA[ */!function(){try{var t=&quot;currentScript&quot;in document?document.currentScript:function(){for(var t=document.getElementsByTagName(&quot;script&quot;),e=t.length;e--;)if(t[e].getAttribute(&quot;cf-hash&quot;))return t[e]}();if(t&amp;&amp;t.previousSibling){var e,r,n,i,c=t.previousSibling,a=c.getAttribute(&quot;data-cfemail&quot;);if(a){for(e=&quot;&quot;,r=parseInt(a.substr(0,2),16),n=2;a.length-n;n+=2)i=parseInt(a.substr(n,2),16)^r,e+=String.fromCharCode(i);e=document.createTextNode(e),c.parentNode.replaceChild(e,c)}}}catch(u){}}();/* ]]&gt; */&lt;/script&gt;\nFormat settings, CABAC : Yes\nFormat settings, ReFrames : 1 frame\nCodec ID : avc1\nCodec ID/Info : Advanced Video Coding\nDuration : 1h 46mn\nBit rate mode : Variable\nBit rate : 762 Kbps\nWidth : 704 pixels\nHeight : 304 pixels\nDisplay aspect ratio : 2.35:1\nFrame rate mode : Constant\nFrame rate : 29.970 fps\nResolution : 24 bits\nColorimetry : 4:2:0\nScan type : Progressive\nBits/(Pixel*Frame) : 0.119\nStream size : 581 MiB (83%)\n\nAudio\nID : 2\nFormat : AAC\nFormat/Info : Advanced Audio Codec\nFormat version : Version 4\nFormat profile : LC\nFormat settings, SBR : No\nCodec ID : 40\nDuration : 1h 46mn\nBit rate mode : Variable\nBit rate : 152 Kbps\nChannel(s) : 2 channels\nChannel positions : L R\nSampling rate : 44.1 KHz\nResolution : 16 bits\nStream size : 116 MiB (17%)\n\nPlot:\nA coming-of-age biopic about '70s teenage band The Runaways","torrent":{"xt":"urn:btih:bf84c235442189948fa4335101b5baf8a68b0ebe","amp;dn":"The.Runaways.Screener.H264.FEEL-FREE","amp;tr":["udp%3A%2F%2Ftracker.openbittorrent.com%3A80","udp%3A%2F%2Fopen.demonii.com%3A1337","udp%3A%2F%2Ftracker.coppersurfer.tk%3A6969","udp%3A%2F%2Fexodus.desync.com%3A6969"],"infoHash":"bf84c235442189948fa4335101b5baf8a68b0ebe","infoHashBuffer":{"type":"Buffer","data":[191,132,194,53,68,33,137,148,143,164,51,81,1,181,186,248,166,139,14,190]},"announce":[],"urlList":[]}}